<svg width="36" height="36" viewBox="0 0 36 36" fill="none" xmlns="http://www.w3.org/2000/svg">
<path d="M19.5 31.407C19.0024 31.4687 18.5014 31.4998 18 31.5C15.33 31.5 12.7199 30.7082 10.4998 29.2248C8.27974 27.7414 6.54941 25.633 5.52762 23.1662C4.50584 20.6994 4.2385 17.985 4.7594 15.3663C5.2803 12.7475 6.56605 10.3421 8.45406 8.45406C10.3421 6.56606 12.7475 5.28031 15.3663 4.7594C17.985 4.2385 20.6994 4.50585 23.1662 5.52763C25.633 6.54942 27.7414 8.27974 29.2248 10.4998C30.7082 12.7199 31.5 15.33 31.5 18C31.4998 18.5014 31.4687 19.0024 31.407 19.5" stroke="white" stroke-width="2" stroke-linecap="round" stroke-linejoin="round"/>
<path d="M30 25.5L26.25 29.25L24 27" stroke="white" stroke-width="2" stroke-linecap="round" stroke-linejoin="round"/>
<path d="M18.75 10.5V18.75H12" stroke="white" stroke-width="2" stroke-linecap="round" stroke-linejoin="round"/>
</svg>
