<svg width="36" height="36" viewBox="0 0 36 36" fill="none" xmlns="http://www.w3.org/2000/svg">
<path d="M19.41 16.5901L8.805 27.1951" stroke="white" stroke-width="2" stroke-linecap="round" stroke-linejoin="round"/>
<path d="M9.9495 19.4984L4.755 18.2714C4.1835 18.1364 3.9825 17.4269 4.3965 17.0114L8.5275 12.8804C8.805 12.6029 9.1815 12.4439 9.576 12.4409L14.2335 12.4004" stroke="white" stroke-width="2" stroke-linecap="round" stroke-linejoin="round"/>
<path d="M29.8185 13.4624L31.0305 7.63043C31.3605 6.04343 29.9565 4.63943 28.3695 4.96943L22.5375 6.18143C20.82 6.53843 19.245 7.38893 18.006 8.62943L13.221 13.4129C11.3955 15.2384 10.2075 17.6054 9.8325 20.1599L9.816 20.2694C9.579 21.8999 10.125 23.5454 11.289 24.7109C12.453 25.8749 14.1 26.4209 15.7305 26.1824L15.84 26.1659C18.3945 25.7924 20.7615 24.6029 22.587 22.7774L27.3705 17.9939C28.611 16.7549 29.4615 15.1799 29.8185 13.4624V13.4624Z" stroke="white" stroke-width="2" stroke-linecap="round" stroke-linejoin="round"/>
<path d="M20.1 7.07104C23.5665 9.43504 26.565 12.4335 28.929 15.9" stroke="white" stroke-width="2" stroke-linecap="round" stroke-linejoin="round"/>
<path d="M16.5 26.0506L17.727 31.2451C17.862 31.8166 18.5715 32.0176 18.987 31.6036L23.118 27.4726C23.3955 27.1951 23.5545 26.8186 23.5575 26.4241L23.598 21.7666" stroke="white" stroke-width="2" stroke-linecap="round" stroke-linejoin="round"/>
</svg>
